<?xml version="1.0" encoding="UTF-8"?>
<svg width="52px" height="52px" viewBox="0 0 52 52" version="1.1" xmlns="http://www.w3.org/2000/svg">
    <title>close</title>
    <g id="Page-1" stroke="none" stroke-width="1" fill="none" fill-rule="evenodd">
        <g id="close" fill="#D9E1E8" fill-rule="nonzero">
            <path d="M28.9,25.8 L51.1,3.7 C51.1,3.7 51.1,3.7 51.1,3.7 C51.9,2.9 51.9,1.5 51.1,0.7 L51.1,0.7 C50.3,-0.1 48.9,-0.1 48.1,0.7 L25.9,22.8 L3.7,0.6 C3.2,0.2 2.7,0 2.2,0 C1.6,0 1.1,0.2 0.6,0.6 C0.2,1 0,1.6 0,2.1 C0,2.6 0.2,3.2 0.6,3.6 L22.8,25.8 L0.6,48 C-0.2,48.8 -0.2,50.2 0.6,51 C1.4,51.8 2.8,51.8 3.6,51 L25.8,28.8 L48,51.1 C48.8,51.9 50.2,51.9 51,51.1 C51.8,50.3 51.8,48.9 51,48.1 L28.9,25.8 Z" id="Path"></path>
        </g>
    </g>
</svg>