<svg width="18" height="18" viewBox="0 0 18 18" fill="none" xmlns="http://www.w3.org/2000/svg">
<path d="M8.99172 6.375C8.45351 6.375 8.0625 5.97931 8.0625 5.44403C8.0625 4.88966 8.45351 4.5 8.9908 4.5C9.55109 4.5 9.9375 4.88966 9.9375 5.44403C9.9375 5.97931 9.55201 6.375 8.99172 6.375Z" fill="#20232B"/>
<path d="M9 7.125C8.58579 7.125 8.25 7.46079 8.25 7.875V12.75C8.25 13.1642 8.58579 13.5 9 13.5C9.41421 13.5 9.75 13.1642 9.75 12.75V7.875C9.75 7.46079 9.41421 7.125 9 7.125Z" fill="#20232B"/>
<path fill-rule="evenodd" clip-rule="evenodd" d="M9 16.5C13.1421 16.5 16.5 13.1421 16.5 9C16.5 4.85786 13.1421 1.5 9 1.5C4.85786 1.5 1.5 4.85786 1.5 9C1.5 13.1421 4.85786 16.5 9 16.5ZM9 15.4286C12.5504 15.4286 15.4286 12.5504 15.4286 9C15.4286 5.4496 12.5504 2.57143 9 2.57143C5.4496 2.57143 2.57143 5.4496 2.57143 9C2.57143 12.5504 5.4496 15.4286 9 15.4286Z" fill="#20232B"/>
</svg>
