<svg width="68" height="14" viewBox="0 0 68 14" fill="none" xmlns="http://www.w3.org/2000/svg">
<g clip-path="url(#clip0_17184_1159)">
<path d="M60.9122 11.5266C60.2348 11.5266 59.6882 11.4381 59.2725 11.261C58.8645 11.084 58.5489 10.853 58.3256 10.5682C58.1024 10.2756 57.9523 9.94847 57.8753 9.58666C57.806 9.21714 57.7714 8.84378 57.7714 8.46656V5.11783C57.7714 4.74062 57.806 4.37111 57.8753 4.00929C57.9523 3.63977 58.1024 3.3126 58.3256 3.02777C58.5489 2.74293 58.8645 2.51198 59.2725 2.33492C59.6882 2.15787 60.2348 2.06934 60.9122 2.06934C61.5897 2.06934 62.1324 2.15787 62.5404 2.33492C62.9561 2.51198 63.2756 2.74293 63.4988 3.02777C63.7221 3.3126 63.8684 3.63977 63.9376 4.00929C64.0146 4.37111 64.0531 4.74062 64.0531 5.11783V8.46656C64.0531 8.84378 64.0146 9.21714 63.9376 9.58666C63.8684 9.94847 63.7221 10.2756 63.4988 10.5682C63.2756 10.853 62.9561 11.084 62.5404 11.261C62.1324 11.4381 61.5897 11.5266 60.9122 11.5266ZM64.3995 5.82222H65.97V2.11553H67.8176V11.4689H65.97V7.17326H64.3995V5.82222ZM60.9122 3.36264C60.766 3.36264 60.6159 3.38188 60.4619 3.42037C60.3079 3.45887 60.1655 3.52815 60.0346 3.62823C59.9115 3.7283 59.8075 3.86687 59.7229 4.04393C59.6459 4.22099 59.6074 4.45194 59.6074 4.73677V8.84763C59.6074 9.13246 59.6459 9.36341 59.7229 9.54047C59.8075 9.71753 59.9115 9.85609 60.0346 9.95617C60.1655 10.0562 60.3079 10.1255 60.4619 10.164C60.6159 10.2025 60.766 10.2218 60.9122 10.2218C61.0585 10.2218 61.2086 10.2025 61.3626 10.164C61.5165 10.1255 61.6551 10.0562 61.7783 9.95617C61.9092 9.85609 62.0131 9.71753 62.0901 9.54047C62.1748 9.36341 62.2171 9.13246 62.2171 8.84763V4.73677C62.2171 4.45194 62.1748 4.22099 62.0901 4.04393C62.0131 3.86687 61.9092 3.7283 61.7783 3.62823C61.6551 3.52815 61.5165 3.45887 61.3626 3.42037C61.2086 3.38188 61.0585 3.36264 60.9122 3.36264Z" fill="#227EFF"/>
<path d="M56.0624 8.51271H52.3672V10.1178H56.709V11.4688H46.1894V10.1178H50.5312V8.51271H48.5797C48.3257 8.51271 48.0909 8.49346 47.8753 8.45497C47.6675 8.40878 47.4865 8.3318 47.3326 8.22402C47.1786 8.10855 47.0593 7.95459 46.9746 7.76213C46.8899 7.56198 46.8476 7.31178 46.8476 7.01155V2.11548H56.0624V3.46652H48.6952V4.62125H56.0624V5.99539H48.6952V6.54966C48.6952 6.69593 48.7029 6.8114 48.7183 6.89608C48.7414 6.97306 48.7798 7.03465 48.8337 7.08084C48.8953 7.11933 48.9762 7.14242 49.0762 7.15012C49.1763 7.15782 49.3072 7.16167 49.4688 7.16167H56.0624V8.51271Z" fill="#227EFF"/>
<path d="M34.642 10.1178H45.1617V11.4688H34.642V10.1178ZM39.8961 3.33949C39.0416 3.33949 38.368 3.5204 37.8753 3.88222C37.3903 4.23634 37.1478 4.80985 37.1478 5.60277V8.37413H35.3002V5.39492C35.3002 4.74827 35.4349 4.20939 35.7044 3.77829C35.9738 3.34719 36.3241 3.00077 36.7552 2.73903C37.194 2.46959 37.6867 2.28099 38.2333 2.17321C38.7798 2.05774 39.3341 2 39.8961 2C40.458 2 41.0123 2.05774 41.5589 2.17321C42.1055 2.28099 42.5943 2.46959 43.0254 2.73903C43.4642 3.00077 43.8183 3.34719 44.0878 3.77829C44.3572 4.20939 44.4919 4.74827 44.4919 5.39492V8.37413H42.6443V5.60277C42.6443 4.80985 42.398 4.23634 41.9053 3.88222C41.4203 3.5204 40.7506 3.33949 39.8961 3.33949Z" fill="#227EFF"/>
<path d="M26.2702 3.35104C25.816 3.35104 25.4888 3.45112 25.2887 3.65127C25.0885 3.85142 24.9884 4.12086 24.9884 4.45958V11.4688H23.1409V4.75982C23.1409 4.27483 23.1986 3.85912 23.3141 3.5127C23.4296 3.16628 23.6105 2.88145 23.8568 2.6582C24.1031 2.43495 24.4226 2.26944 24.8152 2.16166C25.2155 2.05389 25.7005 2 26.2702 2C26.8322 2 27.3133 2.05389 27.7136 2.16166C28.1139 2.26944 28.4373 2.43495 28.6836 2.6582C28.9376 2.88145 29.1224 3.16628 29.2379 3.5127C29.3533 3.85912 29.4111 4.27483 29.4111 4.75982V11.4688H27.5635V4.45958C27.5635 4.12086 27.4596 3.85142 27.2517 3.65127C27.0516 3.45112 26.7244 3.35104 26.2702 3.35104ZM29.7575 5.82217H31.3279V2.11547H33.1755V11.4688H31.3279V7.17321H29.7575V5.82217Z" fill="#227EFF"/>
<path d="M17.8637 2.11548V8.70901C17.856 9.67129 17.5943 10.3718 17.0785 10.8106C16.5704 11.2494 15.7698 11.4688 14.6766 11.4688C14.107 11.4688 13.6258 11.4149 13.2332 11.3072C12.8483 11.1994 12.5327 11.0339 12.2863 10.8106C12.04 10.5874 11.8629 10.3025 11.7552 9.95613C11.6474 9.60971 11.5935 9.194 11.5935 8.70901V2.11548H13.4411V5.4873H16.0161V2.11548H17.8637ZM19.7806 2.11548H21.6281V11.4688H19.7806V2.11548ZM14.6766 10.1178C14.9307 10.1178 15.1424 10.0908 15.3118 10.037C15.4888 9.98307 15.6274 9.90994 15.7275 9.81756C15.8352 9.71748 15.9084 9.60201 15.9469 9.47114C15.993 9.33257 16.0161 9.1786 16.0161 9.00924V6.83834H13.4411V9.00924C13.4411 9.34797 13.5335 9.6174 13.7182 9.81756C13.903 10.0177 14.2225 10.1178 14.6766 10.1178Z" fill="#227EFF"/>
<path d="M0.762125 2.11548H8.14088C8.39492 2.11548 8.62587 2.13857 8.83372 2.18476C9.04927 2.22325 9.23403 2.30024 9.38799 2.41571C9.54196 2.52348 9.66128 2.67745 9.74596 2.8776C9.83064 3.07006 9.87298 3.3164 9.87298 3.61663V6.1455H10.5196V7.49654H0V6.1455H3.4642V4.4134H5.31178V6.1455H8.0254V4.194C8.0254 3.90917 7.97537 3.71671 7.87529 3.61663C7.78291 3.51656 7.57506 3.46652 7.25173 3.46652H0.762125V2.11548ZM0.577367 10.164C0.577367 9.77137 0.6505 9.45574 0.796767 9.21709C0.943033 8.97075 1.13549 8.78214 1.37413 8.65127C1.62048 8.5204 1.89761 8.43572 2.20554 8.39723C2.52117 8.35104 2.84834 8.32795 3.18707 8.32795H7.32102C7.65974 8.32795 7.98691 8.35104 8.30254 8.39723C8.61817 8.43572 8.8953 8.5204 9.13395 8.65127C9.38029 8.78214 9.5766 8.97075 9.72286 9.21709C9.86913 9.45574 9.94226 9.77137 9.94226 10.164C9.94226 10.5566 9.86913 10.8722 9.72286 11.1109C9.5766 11.3572 9.38029 11.5458 9.13395 11.6767C8.8953 11.8075 8.61817 11.8922 8.30254 11.9307C7.98691 11.9769 7.65974 12 7.32102 12H3.18707C2.84834 12 2.52117 11.9769 2.20554 11.9307C1.89761 11.8922 1.62048 11.8075 1.37413 11.6767C1.13549 11.5458 0.943033 11.3572 0.796767 11.1109C0.6505 10.8722 0.577367 10.5566 0.577367 10.164ZM8.09469 10.164C8.09469 9.98692 8.0408 9.86375 7.93303 9.79446C7.82525 9.71748 7.65974 9.67899 7.43649 9.67899H3.07159C2.84834 9.67899 2.68283 9.71748 2.57506 9.79446C2.47498 9.86375 2.42494 9.98692 2.42494 10.164C2.42494 10.341 2.47498 10.4681 2.57506 10.545C2.68283 10.6143 2.84834 10.649 3.07159 10.649H7.43649C7.65974 10.649 7.82525 10.6143 7.93303 10.545C8.0408 10.4681 8.09469 10.341 8.09469 10.164Z" fill="#227EFF"/>
</g>
<defs>
<clipPath id="clip0_17184_1159">
<rect width="68" height="13.2222" fill="white" transform="translate(0 0.388916)"/>
</clipPath>
</defs>
</svg>
